<?xml version="1.0" encoding="UTF-8" standalone="no"?>
<!DOCTYPE svg PUBLIC "-//W3C//DTD SVG 1.1//EN"
 "http://www.w3.org/Graphics/SVG/1.1/DTD/svg11.dtd">
<!-- Generated by graphviz version 2.43.0 (0)
 -->
<!-- Title: %3 Pages: 1 -->
<svg width="336pt" height="260pt"
 viewBox="0.00 0.00 336.00 260.00" xmlns="http://www.w3.org/2000/svg" xmlns:xlink="http://www.w3.org/1999/xlink">
<g id="graph0" class="graph" transform="scale(1 1) rotate(0) translate(4 256)">
<title>%3</title>
<polygon fill="white" stroke="transparent" points="-4,4 -4,-256 332,-256 332,4 -4,4"/>
<!-- 1 -->
<g id="node1" class="node">
<title>1</title>
<ellipse fill="none" stroke="black" cx="88" cy="-234" rx="27" ry="18"/>
<text text-anchor="middle" x="88" y="-230.3" font-family="Times,serif" font-size="14.00">1</text>
</g>
<!-- 2 -->
<g id="node2" class="node">
<title>2</title>
<ellipse fill="none" stroke="black" cx="52" cy="-162" rx="27" ry="18"/>
<text text-anchor="middle" x="52" y="-158.3" font-family="Times,serif" font-size="14.00">2</text>
</g>
<!-- 1&#45;&gt;2 -->
<g id="edge1" class="edge">
<title>1&#45;&gt;2</title>
<path fill="none" stroke="black" d="M79.65,-216.76C75.29,-208.28 69.85,-197.71 64.96,-188.2"/>
<polygon fill="black" stroke="black" points="67.99,-186.44 60.3,-179.15 61.77,-189.64 67.99,-186.44"/>
</g>
<!-- 3 -->
<g id="node3" class="node">
<title>3</title>
<ellipse fill="none" stroke="black" cx="136" cy="-162" rx="27" ry="18"/>
<text text-anchor="middle" x="136" y="-158.3" font-family="Times,serif" font-size="14.00">3</text>
</g>
<!-- 1&#45;&gt;3 -->
<g id="edge2" class="edge">
<title>1&#45;&gt;3</title>
<path fill="none" stroke="black" d="M98.89,-217.12C104.97,-208.26 112.66,-197.04 119.46,-187.12"/>
<polygon fill="black" stroke="black" points="122.38,-189.05 125.15,-178.82 116.61,-185.09 122.38,-189.05"/>
</g>
<!-- 4 -->
<g id="node8" class="node">
<title>4</title>
<ellipse fill="none" stroke="black" cx="27" cy="-90" rx="27" ry="18"/>
<text text-anchor="middle" x="27" y="-86.3" font-family="Times,serif" font-size="14.00">4</text>
</g>
<!-- 2&#45;&gt;4 -->
<g id="edge7" class="edge">
<title>2&#45;&gt;4</title>
<path fill="none" stroke="black" d="M46.08,-144.41C43.22,-136.42 39.73,-126.64 36.52,-117.64"/>
<polygon fill="black" stroke="black" points="39.72,-116.2 33.06,-107.96 33.12,-118.55 39.72,-116.2"/>
</g>
<!-- 5 -->
<g id="node9" class="node">
<title>5</title>
<ellipse fill="none" stroke="black" cx="148" cy="-18" rx="27" ry="18"/>
<text text-anchor="middle" x="148" y="-14.3" font-family="Times,serif" font-size="14.00">5</text>
</g>
<!-- 2&#45;&gt;5 -->
<g id="edge8" class="edge">
<title>2&#45;&gt;5</title>
<path fill="none" stroke="black" d="M62.64,-145.26C79.36,-120.52 111.92,-72.37 131.64,-43.2"/>
<polygon fill="black" stroke="black" points="134.61,-45.05 137.31,-34.81 128.81,-41.13 134.61,-45.05"/>
</g>
<!-- 7 -->
<g id="node4" class="node">
<title>7</title>
<ellipse fill="none" stroke="black" cx="149" cy="-90" rx="27" ry="18"/>
<text text-anchor="middle" x="149" y="-86.3" font-family="Times,serif" font-size="14.00">7</text>
</g>
<!-- 3&#45;&gt;7 -->
<g id="edge3" class="edge">
<title>3&#45;&gt;7</title>
<path fill="none" stroke="black" d="M139.15,-144.05C140.58,-136.35 142.31,-127.03 143.92,-118.36"/>
<polygon fill="black" stroke="black" points="147.41,-118.75 145.79,-108.28 140.52,-117.47 147.41,-118.75"/>
</g>
<!-- 6 -->
<g id="node5" class="node">
<title>6</title>
<ellipse fill="none" stroke="black" cx="238" cy="-90" rx="27" ry="18"/>
<text text-anchor="middle" x="238" y="-86.3" font-family="Times,serif" font-size="14.00">6</text>
</g>
<!-- 3&#45;&gt;6 -->
<g id="edge4" class="edge">
<title>3&#45;&gt;6</title>
<path fill="none" stroke="black" d="M154.24,-148.49C170.19,-137.54 193.57,-121.49 211.57,-109.14"/>
<polygon fill="black" stroke="black" points="213.66,-111.95 219.92,-103.41 209.7,-106.18 213.66,-111.95"/>
</g>
<!-- 9 -->
<g id="node6" class="node">
<title>9</title>
<ellipse fill="none" stroke="black" cx="229" cy="-18" rx="27" ry="18"/>
<text text-anchor="middle" x="229" y="-14.3" font-family="Times,serif" font-size="14.00">9</text>
</g>
<!-- 6&#45;&gt;9 -->
<g id="edge5" class="edge">
<title>6&#45;&gt;9</title>
<path fill="none" stroke="black" d="M235.82,-72.05C234.83,-64.35 233.63,-55.03 232.52,-46.36"/>
<polygon fill="black" stroke="black" points="235.97,-45.75 231.22,-36.28 229.02,-46.64 235.97,-45.75"/>
</g>
<!-- 10 -->
<g id="node7" class="node">
<title>10</title>
<ellipse fill="none" stroke="black" cx="301" cy="-18" rx="27" ry="18"/>
<text text-anchor="middle" x="301" y="-14.3" font-family="Times,serif" font-size="14.00">10</text>
</g>
<!-- 6&#45;&gt;10 -->
<g id="edge6" class="edge">
<title>6&#45;&gt;10</title>
<path fill="none" stroke="black" d="M251.36,-74.15C259.88,-64.69 271.09,-52.24 280.69,-41.56"/>
<polygon fill="black" stroke="black" points="283.57,-43.6 287.66,-33.82 278.37,-38.92 283.57,-43.6"/>
</g>
<!-- 8 -->
<g id="node10" class="node">
<title>8</title>
<ellipse fill="none" stroke="black" cx="59" cy="-18" rx="27" ry="18"/>
<text text-anchor="middle" x="59" y="-14.3" font-family="Times,serif" font-size="14.00">8</text>
</g>
<!-- 4&#45;&gt;8 -->
<g id="edge9" class="edge">
<title>4&#45;&gt;8</title>
<path fill="none" stroke="black" d="M34.58,-72.41C38.37,-64.13 43.03,-53.92 47.27,-44.66"/>
<polygon fill="black" stroke="black" points="50.5,-46.02 51.47,-35.47 44.13,-43.11 50.5,-46.02"/>
</g>
</g>
</svg>
