<?xml version="1.0" encoding="UTF-8" standalone="no"?>
<!DOCTYPE svg PUBLIC "-//W3C//DTD SVG 1.1//EN"
 "http://www.w3.org/Graphics/SVG/1.1/DTD/svg11.dtd">
<!-- Generated by graphviz version 2.43.0 (0)
 -->
<!-- Title: %3 Pages: 1 -->
<svg width="317pt" height="260pt"
 viewBox="0.00 0.00 317.00 260.00" xmlns="http://www.w3.org/2000/svg" xmlns:xlink="http://www.w3.org/1999/xlink">
<g id="graph0" class="graph" transform="scale(1 1) rotate(0) translate(4 256)">
<title>%3</title>
<polygon fill="white" stroke="transparent" points="-4,4 -4,-256 313,-256 313,4 -4,4"/>
<!-- 7 -->
<g id="node1" class="node">
<title>7</title>
<ellipse fill="none" stroke="black" cx="27" cy="-18" rx="27" ry="18"/>
<text text-anchor="middle" x="27" y="-14.3" font-family="Times,serif" font-size="14.00">7</text>
</g>
<!-- 3 -->
<g id="node2" class="node">
<title>3</title>
<ellipse fill="none" stroke="black" cx="62" cy="-162" rx="27" ry="18"/>
<text text-anchor="middle" x="62" y="-158.3" font-family="Times,serif" font-size="14.00">3</text>
</g>
<!-- 3&#45;&gt;7 -->
<g id="edge2" class="edge">
<title>3&#45;&gt;7</title>
<path fill="none" stroke="black" d="M57.85,-144.15C51.85,-119.81 40.7,-74.57 33.57,-45.67"/>
<polygon fill="black" stroke="black" points="36.94,-44.7 31.15,-35.82 30.14,-46.37 36.94,-44.7"/>
</g>
<!-- 6 -->
<g id="node3" class="node">
<title>6</title>
<ellipse fill="none" stroke="black" cx="94" cy="-90" rx="27" ry="18"/>
<text text-anchor="middle" x="94" y="-86.3" font-family="Times,serif" font-size="14.00">6</text>
</g>
<!-- 3&#45;&gt;6 -->
<g id="edge1" class="edge">
<title>3&#45;&gt;6</title>
<path fill="none" stroke="black" d="M69.58,-144.41C73.37,-136.13 78.03,-125.92 82.27,-116.66"/>
<polygon fill="black" stroke="black" points="85.5,-118.02 86.47,-107.47 79.13,-115.11 85.5,-118.02"/>
</g>
<!-- 9 -->
<g id="node7" class="node">
<title>9</title>
<ellipse fill="none" stroke="black" cx="99" cy="-18" rx="27" ry="18"/>
<text text-anchor="middle" x="99" y="-14.3" font-family="Times,serif" font-size="14.00">9</text>
</g>
<!-- 6&#45;&gt;9 -->
<g id="edge4" class="edge">
<title>6&#45;&gt;9</title>
<path fill="none" stroke="black" d="M95.24,-71.7C95.79,-63.98 96.45,-54.71 97.06,-46.11"/>
<polygon fill="black" stroke="black" points="100.56,-46.33 97.78,-36.1 93.57,-45.83 100.56,-46.33"/>
</g>
<!-- 10 -->
<g id="node8" class="node">
<title>10</title>
<ellipse fill="none" stroke="black" cx="171" cy="-18" rx="27" ry="18"/>
<text text-anchor="middle" x="171" y="-14.3" font-family="Times,serif" font-size="14.00">10</text>
</g>
<!-- 6&#45;&gt;10 -->
<g id="edge5" class="edge">
<title>6&#45;&gt;10</title>
<path fill="none" stroke="black" d="M109.58,-74.83C120.61,-64.81 135.59,-51.19 147.99,-39.92"/>
<polygon fill="black" stroke="black" points="150.66,-42.22 155.7,-32.91 145.95,-37.04 150.66,-42.22"/>
</g>
<!-- 4 -->
<g id="node4" class="node">
<title>4</title>
<ellipse fill="none" stroke="black" cx="210" cy="-90" rx="27" ry="18"/>
<text text-anchor="middle" x="210" y="-86.3" font-family="Times,serif" font-size="14.00">4</text>
</g>
<!-- 8 -->
<g id="node5" class="node">
<title>8</title>
<ellipse fill="none" stroke="black" cx="243" cy="-18" rx="27" ry="18"/>
<text text-anchor="middle" x="243" y="-14.3" font-family="Times,serif" font-size="14.00">8</text>
</g>
<!-- 4&#45;&gt;8 -->
<g id="edge3" class="edge">
<title>4&#45;&gt;8</title>
<path fill="none" stroke="black" d="M217.82,-72.41C221.72,-64.13 226.54,-53.92 230.9,-44.66"/>
<polygon fill="black" stroke="black" points="234.14,-46.01 235.24,-35.47 227.81,-43.02 234.14,-46.01"/>
</g>
<!-- 5 -->
<g id="node6" class="node">
<title>5</title>
<ellipse fill="none" stroke="black" cx="282" cy="-90" rx="27" ry="18"/>
<text text-anchor="middle" x="282" y="-86.3" font-family="Times,serif" font-size="14.00">5</text>
</g>
<!-- 2 -->
<g id="node9" class="node">
<title>2</title>
<ellipse fill="none" stroke="black" cx="172" cy="-162" rx="27" ry="18"/>
<text text-anchor="middle" x="172" y="-158.3" font-family="Times,serif" font-size="14.00">2</text>
</g>
<!-- 2&#45;&gt;4 -->
<g id="edge6" class="edge">
<title>2&#45;&gt;4</title>
<path fill="none" stroke="black" d="M180.81,-144.76C185.42,-136.28 191.16,-125.71 196.32,-116.2"/>
<polygon fill="black" stroke="black" points="199.54,-117.61 201.23,-107.15 193.39,-114.27 199.54,-117.61"/>
</g>
<!-- 2&#45;&gt;5 -->
<g id="edge7" class="edge">
<title>2&#45;&gt;5</title>
<path fill="none" stroke="black" d="M191.16,-148.81C208.67,-137.67 234.76,-121.06 254.49,-108.5"/>
<polygon fill="black" stroke="black" points="256.5,-111.37 263.06,-103.05 252.74,-105.47 256.5,-111.37"/>
</g>
<!-- 1 -->
<g id="node10" class="node">
<title>1</title>
<ellipse fill="none" stroke="black" cx="98" cy="-234" rx="27" ry="18"/>
<text text-anchor="middle" x="98" y="-230.3" font-family="Times,serif" font-size="14.00">1</text>
</g>
<!-- 1&#45;&gt;3 -->
<g id="edge9" class="edge">
<title>1&#45;&gt;3</title>
<path fill="none" stroke="black" d="M89.65,-216.76C85.29,-208.28 79.85,-197.71 74.96,-188.2"/>
<polygon fill="black" stroke="black" points="77.99,-186.44 70.3,-179.15 71.77,-189.64 77.99,-186.44"/>
</g>
<!-- 1&#45;&gt;2 -->
<g id="edge8" class="edge">
<title>1&#45;&gt;2</title>
<path fill="none" stroke="black" d="M112.98,-218.83C123.51,-208.87 137.78,-195.37 149.66,-184.14"/>
<polygon fill="black" stroke="black" points="152.19,-186.56 157.05,-177.14 147.38,-181.47 152.19,-186.56"/>
</g>
</g>
</svg>
