<?xml version="1.0" encoding="UTF-8" standalone="no"?>
<!DOCTYPE svg PUBLIC "-//W3C//DTD SVG 1.1//EN"
 "http://www.w3.org/Graphics/SVG/1.1/DTD/svg11.dtd">
<!-- Generated by graphviz version 2.43.0 (0)
 -->
<!-- Title: %3 Pages: 1 -->
<svg width="310pt" height="260pt"
 viewBox="0.00 0.00 310.00 260.00" xmlns="http://www.w3.org/2000/svg" xmlns:xlink="http://www.w3.org/1999/xlink">
<g id="graph0" class="graph" transform="scale(1 1) rotate(0) translate(4 256)">
<title>%3</title>
<polygon fill="white" stroke="transparent" points="-4,4 -4,-256 306,-256 306,4 -4,4"/>
<!-- 5 -->
<g id="node1" class="node">
<title>5</title>
<ellipse fill="none" stroke="black" cx="33" cy="-18" rx="27" ry="18"/>
<text text-anchor="middle" x="33" y="-14.3" font-family="Times,serif" font-size="14.00">5</text>
</g>
<!-- 1 -->
<g id="node2" class="node">
<title>1</title>
<ellipse fill="none" stroke="black" cx="63" cy="-234" rx="27" ry="18"/>
<text text-anchor="middle" x="63" y="-230.3" font-family="Times,serif" font-size="14.00">1</text>
</g>
<!-- 2 -->
<g id="node3" class="node">
<title>2</title>
<ellipse fill="none" stroke="black" cx="27" cy="-162" rx="27" ry="18"/>
<text text-anchor="middle" x="27" y="-158.3" font-family="Times,serif" font-size="14.00">2</text>
</g>
<!-- 1&#45;&gt;2 -->
<g id="edge1" class="edge">
<title>1&#45;&gt;2</title>
<path fill="none" stroke="black" d="M54.65,-216.76C50.29,-208.28 44.85,-197.71 39.96,-188.2"/>
<polygon fill="black" stroke="black" points="42.99,-186.44 35.3,-179.15 36.77,-189.64 42.99,-186.44"/>
</g>
<!-- 3 -->
<g id="node4" class="node">
<title>3</title>
<ellipse fill="none" stroke="black" cx="115" cy="-162" rx="27" ry="18"/>
<text text-anchor="middle" x="115" y="-158.3" font-family="Times,serif" font-size="14.00">3</text>
</g>
<!-- 1&#45;&gt;3 -->
<g id="edge2" class="edge">
<title>1&#45;&gt;3</title>
<path fill="none" stroke="black" d="M74.54,-217.46C81.27,-208.4 89.9,-196.79 97.46,-186.61"/>
<polygon fill="black" stroke="black" points="100.34,-188.61 103.49,-178.49 94.72,-184.43 100.34,-188.61"/>
</g>
<!-- 2&#45;&gt;5 -->
<g id="edge4" class="edge">
<title>2&#45;&gt;5</title>
<path fill="none" stroke="black" d="M23.64,-143.9C20.59,-125.95 16.99,-96.93 20,-72 21.04,-63.4 22.99,-54.19 25.08,-45.89"/>
<polygon fill="black" stroke="black" points="28.52,-46.56 27.73,-35.99 21.76,-44.75 28.52,-46.56"/>
</g>
<!-- 4 -->
<g id="node7" class="node">
<title>4</title>
<ellipse fill="none" stroke="black" cx="56" cy="-90" rx="27" ry="18"/>
<text text-anchor="middle" x="56" y="-86.3" font-family="Times,serif" font-size="14.00">4</text>
</g>
<!-- 2&#45;&gt;4 -->
<g id="edge3" class="edge">
<title>2&#45;&gt;4</title>
<path fill="none" stroke="black" d="M33.87,-144.41C37.27,-136.22 41.44,-126.14 45.25,-116.95"/>
<polygon fill="black" stroke="black" points="48.58,-118.05 49.18,-107.47 42.12,-115.37 48.58,-118.05"/>
</g>
<!-- 7 -->
<g id="node8" class="node">
<title>7</title>
<ellipse fill="none" stroke="black" cx="132" cy="-90" rx="27" ry="18"/>
<text text-anchor="middle" x="132" y="-86.3" font-family="Times,serif" font-size="14.00">7</text>
</g>
<!-- 3&#45;&gt;7 -->
<g id="edge5" class="edge">
<title>3&#45;&gt;7</title>
<path fill="none" stroke="black" d="M119.12,-144.05C121.01,-136.26 123.3,-126.82 125.42,-118.08"/>
<polygon fill="black" stroke="black" points="128.85,-118.82 127.8,-108.28 122.04,-117.17 128.85,-118.82"/>
</g>
<!-- 6 -->
<g id="node9" class="node">
<title>6</title>
<ellipse fill="none" stroke="black" cx="212" cy="-90" rx="27" ry="18"/>
<text text-anchor="middle" x="212" y="-86.3" font-family="Times,serif" font-size="14.00">6</text>
</g>
<!-- 3&#45;&gt;6 -->
<g id="edge6" class="edge">
<title>3&#45;&gt;6</title>
<path fill="none" stroke="black" d="M132.79,-148.16C147.7,-137.41 169.17,-121.91 186,-109.76"/>
<polygon fill="black" stroke="black" points="188.26,-112.45 194.32,-103.76 184.16,-106.77 188.26,-112.45"/>
</g>
<!-- 8 -->
<g id="node5" class="node">
<title>8</title>
<ellipse fill="none" stroke="black" cx="122" cy="-18" rx="27" ry="18"/>
<text text-anchor="middle" x="122" y="-14.3" font-family="Times,serif" font-size="14.00">8</text>
</g>
<!-- 9 -->
<g id="node6" class="node">
<title>9</title>
<ellipse fill="none" stroke="black" cx="203" cy="-18" rx="27" ry="18"/>
<text text-anchor="middle" x="203" y="-14.3" font-family="Times,serif" font-size="14.00">9</text>
</g>
<!-- 4&#45;&gt;8 -->
<g id="edge7" class="edge">
<title>4&#45;&gt;8</title>
<path fill="none" stroke="black" d="M70,-74.15C79.01,-64.6 90.89,-51.99 101.02,-41.25"/>
<polygon fill="black" stroke="black" points="103.71,-43.5 108.02,-33.82 98.62,-38.7 103.71,-43.5"/>
</g>
<!-- 6&#45;&gt;9 -->
<g id="edge8" class="edge">
<title>6&#45;&gt;9</title>
<path fill="none" stroke="black" d="M209.82,-72.05C208.83,-64.35 207.63,-55.03 206.52,-46.36"/>
<polygon fill="black" stroke="black" points="209.97,-45.75 205.22,-36.28 203.02,-46.64 209.97,-45.75"/>
</g>
<!-- 10 -->
<g id="node10" class="node">
<title>10</title>
<ellipse fill="none" stroke="black" cx="275" cy="-18" rx="27" ry="18"/>
<text text-anchor="middle" x="275" y="-14.3" font-family="Times,serif" font-size="14.00">10</text>
</g>
<!-- 6&#45;&gt;10 -->
<g id="edge9" class="edge">
<title>6&#45;&gt;10</title>
<path fill="none" stroke="black" d="M225.36,-74.15C233.88,-64.69 245.09,-52.24 254.69,-41.56"/>
<polygon fill="black" stroke="black" points="257.57,-43.6 261.66,-33.82 252.37,-38.92 257.57,-43.6"/>
</g>
</g>
</svg>
