<?xml version="1.0" encoding="UTF-8" standalone="no"?>
<!DOCTYPE svg PUBLIC "-//W3C//DTD SVG 1.1//EN"
 "http://www.w3.org/Graphics/SVG/1.1/DTD/svg11.dtd">
<!-- Generated by graphviz version 2.43.0 (0)
 -->
<!-- Title: %3 Pages: 1 -->
<svg width="310pt" height="260pt"
 viewBox="0.00 0.00 310.00 260.00" xmlns="http://www.w3.org/2000/svg" xmlns:xlink="http://www.w3.org/1999/xlink">
<g id="graph0" class="graph" transform="scale(1 1) rotate(0) translate(4 256)">
<title>%3</title>
<polygon fill="white" stroke="transparent" points="-4,4 -4,-256 306,-256 306,4 -4,4"/>
<!-- 5 -->
<g id="node1" class="node">
<title>5</title>
<ellipse fill="none" stroke="black" cx="203" cy="-18" rx="27" ry="18"/>
<text text-anchor="middle" x="203" y="-14.3" font-family="Times,serif" font-size="14.00">5</text>
</g>
<!-- 7 -->
<g id="node2" class="node">
<title>7</title>
<ellipse fill="none" stroke="black" cx="27" cy="-90" rx="27" ry="18"/>
<text text-anchor="middle" x="27" y="-86.3" font-family="Times,serif" font-size="14.00">7</text>
</g>
<!-- 4 -->
<g id="node3" class="node">
<title>4</title>
<ellipse fill="none" stroke="black" cx="224" cy="-90" rx="27" ry="18"/>
<text text-anchor="middle" x="224" y="-86.3" font-family="Times,serif" font-size="14.00">4</text>
</g>
<!-- 8 -->
<g id="node4" class="node">
<title>8</title>
<ellipse fill="none" stroke="black" cx="275" cy="-18" rx="27" ry="18"/>
<text text-anchor="middle" x="275" y="-14.3" font-family="Times,serif" font-size="14.00">8</text>
</g>
<!-- 4&#45;&gt;8 -->
<g id="edge1" class="edge">
<title>4&#45;&gt;8</title>
<path fill="none" stroke="black" d="M235.32,-73.46C241.92,-64.4 250.38,-52.79 257.8,-42.61"/>
<polygon fill="black" stroke="black" points="260.65,-44.64 263.71,-34.49 255,-40.51 260.65,-44.64"/>
</g>
<!-- 6 -->
<g id="node5" class="node">
<title>6</title>
<ellipse fill="none" stroke="black" cx="99" cy="-90" rx="27" ry="18"/>
<text text-anchor="middle" x="99" y="-86.3" font-family="Times,serif" font-size="14.00">6</text>
</g>
<!-- 10 -->
<g id="node6" class="node">
<title>10</title>
<ellipse fill="none" stroke="black" cx="59" cy="-18" rx="27" ry="18"/>
<text text-anchor="middle" x="59" y="-14.3" font-family="Times,serif" font-size="14.00">10</text>
</g>
<!-- 6&#45;&gt;10 -->
<g id="edge2" class="edge">
<title>6&#45;&gt;10</title>
<path fill="none" stroke="black" d="M89.72,-72.76C84.83,-64.19 78.71,-53.49 73.23,-43.9"/>
<polygon fill="black" stroke="black" points="76.23,-42.09 68.23,-35.15 70.15,-45.57 76.23,-42.09"/>
</g>
<!-- 9 -->
<g id="node7" class="node">
<title>9</title>
<ellipse fill="none" stroke="black" cx="131" cy="-18" rx="27" ry="18"/>
<text text-anchor="middle" x="131" y="-14.3" font-family="Times,serif" font-size="14.00">9</text>
</g>
<!-- 6&#45;&gt;9 -->
<g id="edge3" class="edge">
<title>6&#45;&gt;9</title>
<path fill="none" stroke="black" d="M106.58,-72.41C110.37,-64.13 115.03,-53.92 119.27,-44.66"/>
<polygon fill="black" stroke="black" points="122.5,-46.02 123.47,-35.47 116.13,-43.11 122.5,-46.02"/>
</g>
<!-- 3 -->
<g id="node8" class="node">
<title>3</title>
<ellipse fill="none" stroke="black" cx="54" cy="-162" rx="27" ry="18"/>
<text text-anchor="middle" x="54" y="-158.3" font-family="Times,serif" font-size="14.00">3</text>
</g>
<!-- 3&#45;&gt;7 -->
<g id="edge5" class="edge">
<title>3&#45;&gt;7</title>
<path fill="none" stroke="black" d="M47.6,-144.41C44.49,-136.34 40.67,-126.43 37.17,-117.35"/>
<polygon fill="black" stroke="black" points="40.4,-116.03 33.54,-107.96 33.87,-118.55 40.4,-116.03"/>
</g>
<!-- 3&#45;&gt;6 -->
<g id="edge4" class="edge">
<title>3&#45;&gt;6</title>
<path fill="none" stroke="black" d="M64.21,-145.12C69.85,-136.34 76.97,-125.26 83.3,-115.42"/>
<polygon fill="black" stroke="black" points="86.37,-117.13 88.83,-106.82 80.48,-113.34 86.37,-117.13"/>
</g>
<!-- 1 -->
<g id="node9" class="node">
<title>1</title>
<ellipse fill="none" stroke="black" cx="90" cy="-234" rx="27" ry="18"/>
<text text-anchor="middle" x="90" y="-230.3" font-family="Times,serif" font-size="14.00">1</text>
</g>
<!-- 1&#45;&gt;3 -->
<g id="edge7" class="edge">
<title>1&#45;&gt;3</title>
<path fill="none" stroke="black" d="M81.65,-216.76C77.29,-208.28 71.85,-197.71 66.96,-188.2"/>
<polygon fill="black" stroke="black" points="69.99,-186.44 62.3,-179.15 63.77,-189.64 69.99,-186.44"/>
</g>
<!-- 2 -->
<g id="node10" class="node">
<title>2</title>
<ellipse fill="none" stroke="black" cx="140" cy="-162" rx="27" ry="18"/>
<text text-anchor="middle" x="140" y="-158.3" font-family="Times,serif" font-size="14.00">2</text>
</g>
<!-- 1&#45;&gt;2 -->
<g id="edge6" class="edge">
<title>1&#45;&gt;2</title>
<path fill="none" stroke="black" d="M101.1,-217.46C107.51,-208.49 115.7,-197.02 122.92,-186.92"/>
<polygon fill="black" stroke="black" points="125.97,-188.66 128.93,-178.49 120.27,-184.59 125.97,-188.66"/>
</g>
<!-- 2&#45;&gt;5 -->
<g id="edge8" class="edge">
<title>2&#45;&gt;5</title>
<path fill="none" stroke="black" d="M147.35,-144.43C158.21,-119.96 178.64,-73.91 191.49,-44.94"/>
<polygon fill="black" stroke="black" points="194.84,-46.02 195.7,-35.46 188.44,-43.18 194.84,-46.02"/>
</g>
<!-- 2&#45;&gt;4 -->
<g id="edge9" class="edge">
<title>2&#45;&gt;4</title>
<path fill="none" stroke="black" d="M156.2,-147.5C168.63,-137.14 185.99,-122.67 200.03,-110.97"/>
<polygon fill="black" stroke="black" points="202.41,-113.55 207.85,-104.46 197.93,-108.17 202.41,-113.55"/>
</g>
</g>
</svg>
